<svg xmlns="http://www.w3.org/2000/svg"><symbol viewBox="0 0 100 100" id="graduate-1"><circle cx="33.5" cy="33.5" r="33" stroke="#4F4F4F"/><circle cx="66.5" cy="33.5" r="33" stroke="#4F4F4F"/><circle cx="49.5" cy="66.5" r="33" stroke="#4F4F4F"/></symbol><symbol viewBox="0 0 85 102" id="graduate-2"><path d="M42.5 15.235H1l41.5 71.53L84 15.235H42.5zm0 0L1 86.765h83l-41.5-71.53zM84 101H1l41.5-70.819L84 101zM42.5 72.174L1 1h83L42.5 72.174z" stroke="#4F4F4F"/></symbol><symbol viewBox="0 0 65 100" id="graduate-3"><path d="M63.5 31c0 16.837-13.872 30.5-31 30.5S1.5 47.837 1.5 31 15.372.5 32.5.5s31 13.663 31 30.5z" stroke="#4F4F4F"/><path d="M63.5 50c0 16.837-13.872 30.5-31 30.5S1.5 66.837 1.5 50s13.872-30.5 31-30.5 31 13.663 31 30.5z" stroke="#4F4F4F"/><path d="M63.5 69c0 16.837-13.872 30.5-31 30.5S1.5 85.837 1.5 69s13.872-30.5 31-30.5 31 13.663 31 30.5z" stroke="#4F4F4F"/></symbol><symbol viewBox="0 0 102 107" id="graduate-4"><path d="M1 53.5L31.032 2l29.519 51.5L31.032 105 1 53.5zm0 0h40.684m40.685 0L52.593 2 22.819 53.5 52.593 105 82.37 53.5zm0 0H41.684m0 0L71.342 2 101 53.5m-59.316 0L71.342 105 101 53.5m-59.316 0H101" stroke="#4F4F4F"/></symbol><symbol viewBox="0 0 100 66" id="logo-comment-1"><path d="M7.04 52H3.958V38.766H0V36h11v2.766H7.04V52zm11.961-16h3.076v6.098h3.848V36H29v16h-3.076v-7.116h-3.848V52H19V36h.001zm24.352 8.444c.32.064.598.213.835.445.236.232.525.684.866 1.356L48 52h-3.534l-1.963-4.04a18.858 18.858 0 01-.23-.472c-.573-1.207-1.25-1.81-2.029-1.81h-1.026V52H36V36h4.647c2.093 0 3.597.365 4.51 1.093.913.728 1.369 1.914 1.369 3.558 0 1.1-.273 1.976-.818 2.626-.546.65-1.33 1.038-2.355 1.167zm-4.135-5.787v4.361h1.516c.88 0 1.511-.17 1.893-.51.382-.339.572-.898.572-1.677 0-.78-.188-1.336-.566-1.673-.379-.336-1.012-.504-1.899-.504h-1.516v.003zm14.782.13V36h10v2.787h-3.34v10.426H64V52H54v-2.787h3.34V38.787H54zm22.995 10.576L79.815 36H83l-3.807 16h-4.386L71 36h3.185l2.81 13.363zM100 52H90V36h10v2.787h-6.828v3.45h6.183v2.788h-6.183v4.19H100V52zm-83 8h1.526l1.5 3.932h.016L21.568 60H23l-2.503 6h-1.072L17 60zm10 0h3.855v1.22H28.25v1.12h2.46v1.22h-2.46v1.22H31V66h-4v-6zm8 0h1.896l2.692 4.17h.017V60H41v6h-1.823l-2.762-4.272h-.018V66H35v-6zm10.804 1.17H44V60h5v1.17h-1.804V66h-1.393v-4.83h.001zM58 63.594c0 .347-.053.667-.159.96a2.11 2.11 0 01-.473.76c-.21.215-.471.382-.784.504a2.967 2.967 0 01-1.08.182c-.414 0-.776-.06-1.09-.182a2.142 2.142 0 01-.782-.505 2.109 2.109 0 01-.473-.76 2.779 2.779 0 01-.159-.959V60h1.307v3.545c0 .182.029.35.087.504a1.134 1.134 0 00.629.665c.148.064.308.095.48.095a1.135 1.135 0 00.855-.36 1.22 1.22 0 00.248-.4c.06-.161.09-.332.088-.504V60H58v3.594zM62 60h2.412c.318 0 .618.03.902.088a2.2 2.2 0 01.748.297c.213.137.384.325.51.559.128.233.19.526.19.877 0 .423-.114.783-.343 1.08-.228.298-.563.486-1.003.565L67 66h-1.646l-1.302-2.399h-.679V66H62v-6zm1.373 2.483h.81c.123 0 .254-.003.393-.013.128-.005.254-.031.374-.076.11-.04.205-.11.277-.2a.592.592 0 00.111-.381.616.616 0 00-.096-.364.63.63 0 00-.247-.208 1.13 1.13 0 00-.343-.097 2.93 2.93 0 00-.379-.025h-.897v1.364h-.002zM71 60h3.855v1.22H72.25v1.12h2.46v1.22h-2.46v1.22H75V66h-4v-6zm11.154.795a.894.894 0 00-.404-.335 1.233 1.233 0 00-.482-.108c-.088 0-.179.013-.274.037a.967.967 0 00-.266.119.618.618 0 00-.203.212.619.619 0 00-.078.32c0 .2.063.353.189.462.125.106.282.197.473.272.19.077.395.15.615.227.22.075.424.182.615.319.19.138.349.323.474.555.125.232.187.544.187.932 0 .37-.057.694-.172.97a1.96 1.96 0 01-.465.686 1.88 1.88 0 01-.682.406 2.518 2.518 0 01-.817.13 2.51 2.51 0 01-1.002-.197 2.502 2.502 0 01-.862-.639l.869-1.148c.126.2.282.356.473.466.278.162.593.205.893.122a.907.907 0 00.274-.126.616.616 0 00.27-.527.66.66 0 00-.047-.267.545.545 0 00-.146-.208 1.666 1.666 0 00-.482-.296c-.193-.08-.4-.163-.626-.245a2.614 2.614 0 01-.627-.329 1.682 1.682 0 01-.482-.545c-.128-.225-.192-.524-.192-.895 0-.357.06-.67.175-.94a1.932 1.932 0 011.147-1.088c.257-.09.52-.137.792-.137.313 0 .616.053.908.16.292.107.556.286.791.537l-.836 1.098zM42 13v12h-4V13h4zm8-6v18h-4V7h4zm9-7v24h-4V0h4z" fill="#212121"/></symbol><symbol viewBox="0 0 15 13" id="comment__next"><path fill-rule="evenodd" clip-rule="evenodd" d="M0 6.5c0-.246.099-.482.275-.656a.942.942 0 01.662-.272h10.861L7.773 1.587a.925.925 0 010-1.315.943.943 0 011.327 0l5.625 5.57a.927.927 0 01.203 1.014.927.927 0 01-.203.301L9.1 12.727a.943.943 0 01-1.327 0 .925.925 0 010-1.314l4.025-3.985H.938a.942.942 0 01-.663-.272A.924.924 0 010 6.5z" fill="currentColor"/></symbol><symbol viewBox="0 0 15 13" id="comment__prev"><path fill-rule="evenodd" clip-rule="evenodd" d="M15 6.5a.924.924 0 01-.275.656.942.942 0 01-.662.272H3.202l4.025 3.985a.929.929 0 01.204 1.013.93.93 0 01-.508.503.945.945 0 01-1.023-.201L.275 7.158a.928.928 0 01-.203-1.014.928.928 0 01.203-.301L5.9.273a.943.943 0 011.327 0 .925.925 0 010 1.314L3.202 5.572h10.86A.935.935 0 0115 6.5z" fill="currentColor"/></symbol><symbol viewBox="0 0 10 20" id="facebook"><path d="M2.553 20v-9.385H0V7.237h2.553V4.35C2.553 2.083 4.06 0 7.535 0c1.407 0 2.447.131 2.447.131L9.9 3.286s-1.06-.01-2.218-.01c-1.253 0-1.454.562-1.454 1.493v2.468H10l-.164 3.378H6.228V20H2.553z" fill="#fff"/></symbol><symbol viewBox="0 0 21 20" id="linkedin"><path d="M21 12.262V20h-4.501v-7.22c0-1.814-.651-3.052-2.28-3.052-1.244 0-1.984.835-2.31 1.642-.119.288-.149.69-.149 1.093V20H7.257s.06-12.227 0-13.495h4.503v1.913l-.03.044h.03v-.044c.598-.918 1.665-2.23 4.057-2.23 2.962 0 5.183 1.93 5.183 6.074zM2.547 0C1.008 0 0 1.007 0 2.331c0 1.295.979 2.332 2.488 2.332h.03c1.57 0 2.546-1.037 2.546-2.332C5.037 1.007 4.09 0 2.548 0zM.267 20h4.501V6.505h-4.5V20z" fill="#fff"/></symbol><symbol viewBox="0 0 20 17" id="twitter"><path d="M20 2.02a7.935 7.935 0 01-2.36.663A4.249 4.249 0 0019.442.32c-.803.5-1.683.85-2.6 1.036A4.094 4.094 0 0015.479.352 3.934 3.934 0 0013.847 0c-2.271 0-4.098 1.926-4.098 4.29 0 .332.038.664.1.984-3.4-.187-6.434-1.887-8.45-4.49A4.41 4.41 0 00.84 2.95c0 1.489.724 2.801 1.827 3.573a3.997 3.997 0 01-1.853-.545v.052c0 2.085 1.408 3.813 3.285 4.21a4.161 4.161 0 01-1.079.146 5.22 5.22 0 01-.774-.065c.52 1.7 2.031 2.934 3.832 2.975A7.987 7.987 0 01.99 15.129a8.02 8.02 0 01-.99-.053A11.236 11.236 0 006.295 17c7.537 0 11.662-6.533 11.662-12.204 0-.186 0-.372-.012-.559A9.063 9.063 0 0020 2.02z" fill="#fff"/></symbol><symbol viewBox="0 0 8 6" id="architecture__arrow"><path d="M8 0L3.97 6 0 0h8z" fill="#212121"/></symbol></svg>