<svg xmlns="http://www.w3.org/2000/svg"><symbol viewBox="0 0 100 100" id="how-1"><circle cx="33.5" cy="33.5" r="33" stroke="#4F4F4F"/><circle cx="66.5" cy="33.5" r="33" stroke="#4F4F4F"/><circle cx="49.5" cy="66.5" r="33" stroke="#4F4F4F"/></symbol><symbol viewBox="0 0 85 102" id="how-2"><path d="M42.5 15.235H1l41.5 71.53L84 15.235H42.5zm0 0L1 86.765h83l-41.5-71.53zM84 101H1l41.5-70.819L84 101zM42.5 72.174L1 1h83L42.5 72.174z" stroke="#4F4F4F"/></symbol><symbol viewBox="0 0 65 100" id="how-3"><path d="M63.5 31c0 16.837-13.872 30.5-31 30.5S1.5 47.837 1.5 31 15.372.5 32.5.5s31 13.663 31 30.5z" stroke="#4F4F4F"/><path d="M63.5 50c0 16.837-13.872 30.5-31 30.5S1.5 66.837 1.5 50s13.872-30.5 31-30.5 31 13.663 31 30.5z" stroke="#4F4F4F"/><path d="M63.5 69c0 16.837-13.872 30.5-31 30.5S1.5 85.837 1.5 69s13.872-30.5 31-30.5 31 13.663 31 30.5z" stroke="#4F4F4F"/></symbol><symbol viewBox="0 0 102 107" id="how-4"><path d="M1 53.5L31.032 2l29.519 51.5L31.032 105 1 53.5zm0 0h40.684m40.685 0L52.593 2 22.819 53.5 52.593 105 82.37 53.5zm0 0H41.684m0 0L71.342 2 101 53.5m-59.316 0L71.342 105 101 53.5m-59.316 0H101" stroke="#4F4F4F"/></symbol></svg>