<svg xmlns="http://www.w3.org/2000/svg"><symbol viewBox="0 0 100 100" id="graduate-1"><circle cx="33.5" cy="33.5" r="33" stroke="#4F4F4F"/><circle cx="66.5" cy="33.5" r="33" stroke="#4F4F4F"/><circle cx="49.5" cy="66.5" r="33" stroke="#4F4F4F"/></symbol><symbol viewBox="0 0 85 102" id="graduate-2"><path d="M42.5 15.235H1l41.5 71.53L84 15.235H42.5zm0 0L1 86.765h83l-41.5-71.53zM84 101H1l41.5-70.819L84 101zM42.5 72.174L1 1h83L42.5 72.174z" stroke="#4F4F4F"/></symbol><symbol viewBox="0 0 65 100" id="graduate-3"><path d="M63.5 31c0 16.837-13.872 30.5-31 30.5S1.5 47.837 1.5 31 15.372.5 32.5.5s31 13.663 31 30.5z" stroke="#4F4F4F"/><path d="M63.5 50c0 16.837-13.872 30.5-31 30.5S1.5 66.837 1.5 50s13.872-30.5 31-30.5 31 13.663 31 30.5z" stroke="#4F4F4F"/><path d="M63.5 69c0 16.837-13.872 30.5-31 30.5S1.5 85.837 1.5 69s13.872-30.5 31-30.5 31 13.663 31 30.5z" stroke="#4F4F4F"/></symbol><symbol viewBox="0 0 102 107" id="graduate-4"><path d="M1 53.5L31.032 2l29.519 51.5L31.032 105 1 53.5zm0 0h40.684m40.685 0L52.593 2 22.819 53.5 52.593 105 82.37 53.5zm0 0H41.684m0 0L71.342 2 101 53.5m-59.316 0L71.342 105 101 53.5m-59.316 0H101" stroke="#4F4F4F"/></symbol><symbol viewBox="0 0 100 66" id="logo-comment-1"><path d="M7.04 52H3.958V38.766H0V36h11v2.766H7.04V52zm11.961-16h3.076v6.098h3.848V36H29v16h-3.076v-7.116h-3.848V52H19V36h.001zm24.352 8.444c.32.064.598.213.835.445.236.232.525.684.866 1.356L48 52h-3.534l-1.963-4.04a18.858 18.858 0 01-.23-.472c-.573-1.207-1.25-1.81-2.029-1.81h-1.026V52H36V36h4.647c2.093 0 3.597.365 4.51 1.093.913.728 1.369 1.914 1.369 3.558 0 1.1-.273 1.976-.818 2.626-.546.65-1.33 1.038-2.355 1.167zm-4.135-5.787v4.361h1.516c.88 0 1.511-.17 1.893-.51.382-.339.572-.898.572-1.677 0-.78-.188-1.336-.566-1.673-.379-.336-1.012-.504-1.899-.504h-1.516v.003zm14.782.13V36h10v2.787h-3.34v10.426H64V52H54v-2.787h3.34V38.787H54zm22.995 10.576L79.815 36H83l-3.807 16h-4.386L71 36h3.185l2.81 13.363zM100 52H90V36h10v2.787h-6.828v3.45h6.183v2.788h-6.183v4.19H100V52zm-83 8h1.526l1.5 3.932h.016L21.568 60H23l-2.503 6h-1.072L17 60zm10 0h3.855v1.22H28.25v1.12h2.46v1.22h-2.46v1.22H31V66h-4v-6zm8 0h1.896l2.692 4.17h.017V60H41v6h-1.823l-2.762-4.272h-.018V66H35v-6zm10.804 1.17H44V60h5v1.17h-1.804V66h-1.393v-4.83h.001zM58 63.594c0 .347-.053.667-.159.96a2.11 2.11 0 01-.473.76c-.21.215-.471.382-.784.504a2.967 2.967 0 01-1.08.182c-.414 0-.776-.06-1.09-.182a2.142 2.142 0 01-.782-.505 2.109 2.109 0 01-.473-.76 2.779 2.779 0 01-.159-.959V60h1.307v3.545c0 .182.029.35.087.504a1.134 1.134 0 00.629.665c.148.064.308.095.48.095a1.135 1.135 0 00.855-.36 1.22 1.22 0 00.248-.4c.06-.161.09-.332.088-.504V60H58v3.594zM62 60h2.412c.318 0 .618.03.902.088a2.2 2.2 0 01.748.297c.213.137.384.325.51.559.128.233.19.526.19.877 0 .423-.114.783-.343 1.08-.228.298-.563.486-1.003.565L67 66h-1.646l-1.302-2.399h-.679V66H62v-6zm1.373 2.483h.81c.123 0 .254-.003.393-.013.128-.005.254-.031.374-.076.11-.04.205-.11.277-.2a.592.592 0 00.111-.381.616.616 0 00-.096-.364.63.63 0 00-.247-.208 1.13 1.13 0 00-.343-.097 2.93 2.93 0 00-.379-.025h-.897v1.364h-.002zM71 60h3.855v1.22H72.25v1.12h2.46v1.22h-2.46v1.22H75V66h-4v-6zm11.154.795a.894.894 0 00-.404-.335 1.233 1.233 0 00-.482-.108c-.088 0-.179.013-.274.037a.967.967 0 00-.266.119.618.618 0 00-.203.212.619.619 0 00-.078.32c0 .2.063.353.189.462.125.106.282.197.473.272.19.077.395.15.615.227.22.075.424.182.615.319.19.138.349.323.474.555.125.232.187.544.187.932 0 .37-.057.694-.172.97a1.96 1.96 0 01-.465.686 1.88 1.88 0 01-.682.406 2.518 2.518 0 01-.817.13 2.51 2.51 0 01-1.002-.197 2.502 2.502 0 01-.862-.639l.869-1.148c.126.2.282.356.473.466.278.162.593.205.893.122a.907.907 0 00.274-.126.616.616 0 00.27-.527.66.66 0 00-.047-.267.545.545 0 00-.146-.208 1.666 1.666 0 00-.482-.296c-.193-.08-.4-.163-.626-.245a2.614 2.614 0 01-.627-.329 1.682 1.682 0 01-.482-.545c-.128-.225-.192-.524-.192-.895 0-.357.06-.67.175-.94a1.932 1.932 0 011.147-1.088c.257-.09.52-.137.792-.137.313 0 .616.053.908.16.292.107.556.286.791.537l-.836 1.098zM42 13v12h-4V13h4zm8-6v18h-4V7h4zm9-7v24h-4V0h4z" fill="#212121"/></symbol><symbol viewBox="0 0 15 13" id="comment__next"><path fill-rule="evenodd" clip-rule="evenodd" d="M0 6.5c0-.246.099-.482.275-.656a.942.942 0 01.662-.272h10.861L7.773 1.587a.925.925 0 010-1.315.943.943 0 011.327 0l5.625 5.57a.927.927 0 01.203 1.014.927.927 0 01-.203.301L9.1 12.727a.943.943 0 01-1.327 0 .925.925 0 010-1.314l4.025-3.985H.938a.942.942 0 01-.663-.272A.924.924 0 010 6.5z" fill="currentColor"/></symbol><symbol viewBox="0 0 15 13" id="comment__prev"><path fill-rule="evenodd" clip-rule="evenodd" d="M15 6.5a.924.924 0 01-.275.656.942.942 0 01-.662.272H3.202l4.025 3.985a.929.929 0 01.204 1.013.93.93 0 01-.508.503.945.945 0 01-1.023-.201L.275 7.158a.928.928 0 01-.203-1.014.928.928 0 01.203-.301L5.9.273a.943.943 0 011.327 0 .925.925 0 010 1.314L3.202 5.572h10.86A.935.935 0 0115 6.5z" fill="currentColor"/></symbol><symbol viewBox="0 0 10 20" id="facebook"><path d="M2.553 20v-9.385H0V7.237h2.553V4.35C2.553 2.083 4.06 0 7.535 0c1.407 0 2.447.131 2.447.131L9.9 3.286s-1.06-.01-2.218-.01c-1.253 0-1.454.562-1.454 1.493v2.468H10l-.164 3.378H6.228V20H2.553z" fill="#fff"/></symbol><symbol viewBox="0 0 21 20" id="linkedin"><path d="M21 12.262V20h-4.501v-7.22c0-1.814-.651-3.052-2.28-3.052-1.244 0-1.984.835-2.31 1.642-.119.288-.149.69-.149 1.093V20H7.257s.06-12.227 0-13.495h4.503v1.913l-.03.044h.03v-.044c.598-.918 1.665-2.23 4.057-2.23 2.962 0 5.183 1.93 5.183 6.074zM2.547 0C1.008 0 0 1.007 0 2.331c0 1.295.979 2.332 2.488 2.332h.03c1.57 0 2.546-1.037 2.546-2.332C5.037 1.007 4.09 0 2.548 0zM.267 20h4.501V6.505h-4.5V20z" fill="#fff"/></symbol><symbol viewBox="0 0 20 17" id="twitter"><path d="M20 2.02a7.935 7.935 0 01-2.36.663A4.249 4.249 0 0019.442.32c-.803.5-1.683.85-2.6 1.036A4.094 4.094 0 0015.479.352 3.934 3.934 0 0013.847 0c-2.271 0-4.098 1.926-4.098 4.29 0 .332.038.664.1.984-3.4-.187-6.434-1.887-8.45-4.49A4.41 4.41 0 00.84 2.95c0 1.489.724 2.801 1.827 3.573a3.997 3.997 0 01-1.853-.545v.052c0 2.085 1.408 3.813 3.285 4.21a4.161 4.161 0 01-1.079.146 5.22 5.22 0 01-.774-.065c.52 1.7 2.031 2.934 3.832 2.975A7.987 7.987 0 01.99 15.129a8.02 8.02 0 01-.99-.053A11.236 11.236 0 006.295 17c7.537 0 11.662-6.533 11.662-12.204 0-.186 0-.372-.012-.559A9.063 9.063 0 0020 2.02z" fill="#fff"/></symbol><symbol viewBox="0 0 8 6" id="architecture__arrow"><path d="M8 0L3.97 6 0 0h8z" fill="#212121"/></symbol><symbol viewBox="0 0 17 17" id="popup-close"><path d="M8.5 6.611L15.111 0 17 1.889 10.389 8.5 17 15.111 15.111 17 8.5 10.389 1.889 17 0 15.111 6.611 8.5 0 1.889 1.889 0 8.5 6.611z" fill="#212121"/></symbol><symbol viewBox="0 0 28 18" id="popup-back"><path fill-rule="evenodd" clip-rule="evenodd" d="M27.125 9a.938.938 0 00-.937-.938H4.076l5.9-5.898A.938.938 0 108.65.836l-7.5 7.5a.937.937 0 000 1.328l7.5 7.5a.939.939 0 101.327-1.328l-5.9-5.899h22.112A.937.937 0 0027.125 9z" fill="#212121"/></symbol><symbol viewBox="0 0 135 135" id="popup-step2-1"><path d="M24 0v134M.5 21c8.15.225 12.386 1.71 19 6.5M52 0v134M81.5 0v134M110 0v134M29 29.5c17.411-11.262 27.707-11.387 47.5 0m11-4c15.444-5.643 20.763-5.377 35.5 3.5 5.257 1.569 7.32.95 10.5-1M.5 60c17.493-10.153 27.507-11.304 46 0M57 58.5c14.78-9.3 22.717-8.588 36.5 0 3.738 1.98 5.93 2.4 10 1.5m11-5.5c7.231-2.844 11.62-3.012 19-1M.5 83c9.136 1.042 13.185 2.404 19 6m9.5 2c21.29-11.155 31.272-9.018 47.5 1.5M86 89c13.948-7.496 21.558-6.126 35 0 4.107 3.737 6.986 3.65 12.5 2M.5 121c19.132-10.776 29.34-12.175 46-1m10.5-1.5c13.617-8.074 21.386-7.587 35.5 0 4.39 2.868 7.18 3.263 12.5 2.5m9.5-6c7.77-2.613 11.682-2.869 19-1" stroke="#4F4F4F"/></symbol><symbol viewBox="0 0 135 135" id="popup-step2-2"><path d="M12 0v24M0 35.5h24M12 44v24M0 79h24m-12 8.5v24M0 123h24m16 12v-23.5M28 100h23.5M40 91V68M28 56h23.5M40 47V24M28 12h23.5m16-12v24m-12 11.5h24m-12 8.5v24m-12 11h24m-12 8.5v24m-12 11.5H79m16 12v-23.5m-11.5-12H107M95 91V68M83 56h24m-12-8.5V24M83.5 12H107m16-12v24m-12 11.5h24M123 44v24m-12 11h24m-12 8.5v24M111 123h24" stroke="#4F4F4F"/></symbol><symbol viewBox="0 0 135 135" id="popup-step2-3"><path d="M2 5.5V33c2.187 2.238 3.073 2.641 4.5 3H23c3.994-.712 5.31-1.94 4.5-7l-7-23.5c-.54-1.595-1.147-2.327-3.5-3H5c-1.89.453-2.455 1.2-3 3zM11 49c-3.85-5.244-5.791-5.117-9 0v45c2.122 3.45 3.709 3.832 7 2.5l8.5-6.5c1.945-2.681 2-4.567.5-8.5L11 49zm-5.5 61.5c-1.822 1.344-2.66 2.444-3.5 5.5v13c1.575 2.447 2.847 3.357 6 4h19.5c2.714-.468 4.055-1.287 6-4l9-14.5c1.246-2.486 1.07-4.19 0-7.5l-2.5-6.5c-1.574-1.584-2.842-2.263-5.5-3 0 0-4.625-1.945-7-2-2.76-.064-6 2-6 2l-16 13zm45 9L46 126c-1.65 5.077-.296 6.446 5 7h18c2.854-.696 4.138-1.593 5-5.5V121c-.892-1.807-1.92-2.69-5-4H56c-2.385.278-3.658.636-5.5 2.5zm33-2.5v12c1.383 2.843 2.401 3.481 4.5 3.5h41.5c1.982-1.014 1.911-1.907 2.5-3.5.492-1.836.526-2.923 0-5-.248-1.468-.87-2.224-2.5-3.5l-21-22c-3.903-3.3-5.597-3.232-9.5 0L85.5 112c-1.385 1.637-1.787 2.751-2 5zM115 64.5L110 82c-1.328 2.893-1.087 4.537 1.5 7.5L125 103c5.179 2.539 7.256 2.333 8-4V63c-1.36-2.29-2.243-2.968-6-3.5l-8 1c-1.998.525-2.954 1.226-4 4zM57 108h18c2.422-.279 3.595-1.037 5.5-3L98 87c1.201-2.038 1.738-3.241 2.5-5.5l4-14.5c.02-3.894-1.151-5.249-5.5-6H80c-2.334-.3-3.639-.192-6 2.5L50 93c-1.664 2.52-1.615 3.945-.5 6.5L52 105c1.75 2.555 2.876 3.096 5 3zM32.5 87.5L38 89c2.823.046 4.092-.61 6-2.5L64 61c2.272-2.922 2.048-4.566-1.5-7.5L52 46c-1.794-.819-2.89-1.01-5-1H25.5c-4.867 1.07-5.819 2.733-4.5 7.5l6.5 30c.93 2.745 1.942 3.875 5 5zM44 36h6.5c2.175-.238 3.286-.003 5 1.5l17 11.5c2.623 2.078 4.151 2.664 7 2.5H90c2.723-.564 3.793-1.657 4.5-5.5V30c-.265-2.291-.843-3.597-3.5-6L70 4c-2.018-1.179-3.22-1.52-5.5-1.5h-29c-4.49.273-5.413 1.862-4.5 7L38 32c1.629 2.853 2.917 3.805 6 4zm59.5-3.5v15c1.964 3.632 3.488 4.13 6.5 4l18-1c4.161-1.259 5-2.83 5-6.5V26c-1.424-4.585-3.151-5.45-7.5-4.5l-18 5.5c-3.077 1.129-3.802 2.433-4 5.5zM89 9l8.5 8c3.309 2.518 5.027 2.493 8 1.5l24-7.5c5.462-4.563 4.592-6.384-3-8.5H93c-5.005.303-5.023 2.284-4 6.5z" stroke="#4F4F4F"/></symbol></svg>