<svg xmlns="http://www.w3.org/2000/svg">
    <symbol viewBox="0 0 100 100" id="how-1">
        <circle cx="33.5" cy="33.5" r="33" stroke="#4F4F4F"/>
        <circle cx="66.5" cy="33.5" r="33" stroke="#4F4F4F"/>
        <circle cx="49.5" cy="66.5" r="33" stroke="#4F4F4F"/>
    </symbol>
    <symbol viewBox="0 0 85 102" id="how-2">
        <path d="M42.5 15.2349H1L42.5 86.7651L84 15.2349H42.5ZM42.5 15.2349L1 86.7651H84L42.5 15.2349ZM84 101H1L42.5 30.1815L84 101ZM42.5 72.1744L1 1H84L42.5 72.1744Z" stroke="#4F4F4F"/>
    </symbol>
    <symbol viewBox="0 0 65 100" id="how-3">
        <path d="M63.5 31C63.5 47.8372 49.6284 61.5 32.5 61.5C15.3716 61.5 1.5 47.8372 1.5 31C1.5 14.1628 15.3716 0.5 32.5 0.5C49.6284 0.5 63.5 14.1628 63.5 31Z" stroke="#4F4F4F"/>
        <path d="M63.5 50C63.5 66.8372 49.6284 80.5 32.5 80.5C15.3716 80.5 1.5 66.8372 1.5 50C1.5 33.1628 15.3716 19.5 32.5 19.5C49.6284 19.5 63.5 33.1628 63.5 50Z" stroke="#4F4F4F"/>
        <path d="M63.5 69C63.5 85.8372 49.6284 99.5 32.5 99.5C15.3716 99.5 1.5 85.8372 1.5 69C1.5 52.1628 15.3716 38.5 32.5 38.5C49.6284 38.5 63.5 52.1628 63.5 69Z" stroke="#4F4F4F"/>
    </symbol>
    <symbol viewBox="0 0 102 107" id="how-4">
        <path d="M1 53.5L31.032 2L60.5507 53.5L31.032 105L1 53.5ZM1 53.5H41.6844M82.3688 53.5L52.5935 2L22.8181 53.5L52.5935 105L82.3688 53.5ZM82.3688 53.5H41.6844M41.6844 53.5L71.3422 2L101 53.5M41.6844 53.5L71.3422 105L101 53.5M41.6844 53.5H101" stroke="#4F4F4F"/>
    </symbol>
</svg>