<svg xmlns="http://www.w3.org/2000/svg">
    <symbol viewBox="0 0 100 100" id="graduate-1">
        <circle cx="33.5" cy="33.5" r="33" stroke="#4F4F4F"/>
        <circle cx="66.5" cy="33.5" r="33" stroke="#4F4F4F"/>
        <circle cx="49.5" cy="66.5" r="33" stroke="#4F4F4F"/>
    </symbol>
    <symbol viewBox="0 0 85 102" id="graduate-2">
        <path d="M42.5 15.2349H1L42.5 86.7651L84 15.2349H42.5ZM42.5 15.2349L1 86.7651H84L42.5 15.2349ZM84 101H1L42.5 30.1815L84 101ZM42.5 72.1744L1 1H84L42.5 72.1744Z" stroke="#4F4F4F"/>
    </symbol>
    <symbol viewBox="0 0 65 100" id="graduate-3">
        <path d="M63.5 31C63.5 47.8372 49.6284 61.5 32.5 61.5C15.3716 61.5 1.5 47.8372 1.5 31C1.5 14.1628 15.3716 0.5 32.5 0.5C49.6284 0.5 63.5 14.1628 63.5 31Z" stroke="#4F4F4F"/>
        <path d="M63.5 50C63.5 66.8372 49.6284 80.5 32.5 80.5C15.3716 80.5 1.5 66.8372 1.5 50C1.5 33.1628 15.3716 19.5 32.5 19.5C49.6284 19.5 63.5 33.1628 63.5 50Z" stroke="#4F4F4F"/>
        <path d="M63.5 69C63.5 85.8372 49.6284 99.5 32.5 99.5C15.3716 99.5 1.5 85.8372 1.5 69C1.5 52.1628 15.3716 38.5 32.5 38.5C49.6284 38.5 63.5 52.1628 63.5 69Z" stroke="#4F4F4F"/>
    </symbol>
    <symbol viewBox="0 0 102 107" id="graduate-4">
        <path d="M1 53.5L31.032 2L60.5507 53.5L31.032 105L1 53.5ZM1 53.5H41.6844M82.3688 53.5L52.5935 2L22.8181 53.5L52.5935 105L82.3688 53.5ZM82.3688 53.5H41.6844M41.6844 53.5L71.3422 2L101 53.5M41.6844 53.5L71.3422 105L101 53.5M41.6844 53.5H101" stroke="#4F4F4F"/>
    </symbol>
    <symbol viewBox="0 0 100 66" id="logo-comment-1">
        <path d="M7.04031 52H3.95839V38.7655H0V36H11V38.7655H7.04031V52Z" fill="#212121"/>
        <path d="M19.0013 36H22.0774V42.0982H25.9252V36H29V52H25.9239V44.8838H22.0761V52H19V36H19.0013Z" fill="#212121"/>
        <path d="M43.3534 44.4439C43.6733 44.5083 43.9514 44.6572 44.1877 44.8892C44.4239 45.1212 44.7128 45.5732 45.0543 46.2451L48 52H44.4657L42.5029 47.9604C42.4448 47.8464 42.3679 47.6882 42.2734 47.4884C41.6996 46.2813 41.0233 45.6778 40.2444 45.6778H39.2184V52H36V36H40.6466C42.7405 36 44.2444 36.3648 45.1569 37.093C46.0695 37.8213 46.5258 39.0069 46.5258 40.6511C46.5258 41.7509 46.2531 42.6267 45.7077 43.2771C45.1623 43.9276 44.378 44.3152 43.3534 44.4439ZM39.2184 38.6568V43.0183H40.7344C41.6146 43.0183 42.245 42.8479 42.6271 42.5086C43.0091 42.1693 43.1995 41.6101 43.1995 40.8308C43.1995 40.0516 43.0105 39.495 42.6325 39.1584C42.2545 38.8218 41.6213 38.6541 40.7344 38.6541H39.2184V38.6568Z" fill="#212121"/>
        <path d="M54 38.7867V36H64V38.7867H60.6592V49.2133H64V52H54V49.2133H57.3408V38.7867H54Z" fill="#212121"/>
        <path d="M76.9954 49.3633L79.8152 36H83L79.1929 52H74.8071L71 36H74.1848L76.9954 49.3633Z" fill="#212121"/>
        <path d="M100 52H90V36H100V38.7869H93.1723V42.2377H99.3546V45.0246H93.1723V49.2144H100V52Z" fill="#212121"/>
        <path d="M17 60H18.5257L20.0253 63.9316H20.0422L21.5679 60H23L20.4971 66H19.4249L17 60Z" fill="#212121"/>
        <path d="M27 60H30.8554V61.2203H28.2503V62.3392H30.7108V63.5595H28.2503V64.7797H31V66H27V60Z" fill="#212121"/>
        <path d="M35 60H36.8961L39.5878 64.1693H39.6054V60H41V66H39.1771L36.415 61.728H36.3973V66H35V60Z" fill="#212121"/>
        <path d="M45.8043 61.1693H44V60H49V61.1693H47.1957V66H45.8029V61.1693H45.8043Z" fill="#212121"/>
        <path d="M58 63.5942C58 63.9413 57.9467 64.2606 57.8413 64.5532C57.7346 64.8459 57.5772 65.098 57.3677 65.3133C57.1582 65.5287 56.8967 65.6959 56.5844 65.8176C56.272 65.9392 55.9115 66 55.5039 66C55.09 66 54.7282 65.9392 54.4146 65.8176C54.12 65.7088 53.853 65.5366 53.6325 65.3133C53.422 65.0967 53.2605 64.8375 53.1589 64.5532C53.0501 64.2453 52.9963 63.9207 53.0002 63.5942V60H54.3066V63.5448C54.3066 63.7272 54.3358 63.8944 54.3942 64.049C54.447 64.1973 54.5301 64.333 54.6383 64.4475C54.7465 64.5621 54.8774 64.6528 55.0227 64.7141C55.1713 64.7775 55.3312 64.8091 55.5039 64.8091C55.6766 64.8091 55.8353 64.7775 55.9813 64.7141C56.1238 64.6525 56.2522 64.5624 56.3584 64.4493C56.4658 64.3329 56.5498 64.197 56.6059 64.049C56.6655 63.8876 56.6952 63.7168 56.6936 63.5448V60H58V63.5942Z" fill="#212121"/>
        <path d="M62 60H64.4119C64.7296 60 65.0299 60.0299 65.3142 60.0884C65.5985 60.1481 65.8481 60.2469 66.0617 60.3847C66.2752 60.5224 66.4461 60.7095 66.5729 60.9435C66.6997 61.1774 66.7624 61.4698 66.7624 61.8207C66.7624 62.2443 66.6476 62.6043 66.4194 62.9019C66.1911 63.1995 65.8561 63.3866 65.4156 63.4659L67 66H65.3542L64.0515 63.601H63.3735V66H62V60ZM63.3735 62.4834H64.1837C64.3065 62.4834 64.4373 62.4795 64.5761 62.4704C64.7041 62.4645 64.8302 62.4386 64.9498 62.3938C65.0592 62.3533 65.1552 62.2846 65.2274 62.1949C65.3075 62.0834 65.3466 61.9487 65.3382 61.8129C65.345 61.6849 65.3115 61.5579 65.2421 61.449C65.1798 61.3599 65.0947 61.2883 64.9952 61.2411C64.887 61.1907 64.7712 61.1578 64.6522 61.1436C64.5265 61.1272 64.3999 61.1189 64.2731 61.1189H63.3761V62.4834H63.3735Z" fill="#212121"/>
        <path d="M71 60H74.8554V61.2203H72.2503V62.3392H74.7108V63.5595H72.2503V64.7797H75V66H71V60Z" fill="#212121"/>
        <path d="M82.1537 60.7947C82.0479 60.639 81.908 60.5229 81.7501 60.46C81.5957 60.3912 81.4327 60.3546 81.2682 60.3518C81.1804 60.3518 81.089 60.3648 80.9941 60.3893C80.9015 60.4144 80.8122 60.4542 80.7282 60.5076C80.6476 60.5577 80.5781 60.6304 80.5252 60.7197C80.4716 60.8135 80.4441 60.9258 80.4469 61.04C80.4469 61.2405 80.5098 61.3934 80.6356 61.5016C80.7614 61.6084 80.9181 61.6993 81.1092 61.7743C81.2991 61.8508 81.5045 61.9243 81.724 62.0008C81.9436 62.0758 82.1478 62.1826 82.3389 62.3196C82.5288 62.4581 82.6878 62.6428 82.8125 62.8751C82.9383 63.1073 83 63.419 83 63.8071C83 64.1764 82.943 64.501 82.8279 64.7765C82.7174 65.0452 82.5583 65.2799 82.3626 65.4633C82.1668 65.645 81.9401 65.7807 81.6813 65.8687C81.4149 65.9577 81.1398 66.0019 80.8635 65.9999C80.5027 65.9999 80.1691 65.9336 79.8617 65.8023C79.5421 65.6618 79.249 65.4444 79 65.1632L79.8688 64.0148C79.9947 64.2153 80.1513 64.3711 80.3424 64.4808C80.6201 64.6429 80.9346 64.6861 81.235 64.6034C81.331 64.5776 81.4234 64.5348 81.5092 64.4765C81.5871 64.4233 81.6541 64.3493 81.705 64.26C81.7555 64.1684 81.7812 64.06 81.7786 63.9499C81.7813 63.8576 81.7651 63.766 81.7315 63.6832C81.698 63.6004 81.6481 63.5289 81.5863 63.4752C81.4593 63.3598 81.2979 63.2603 81.1044 63.1795C80.911 63.0987 80.7033 63.0165 80.4777 62.9342C80.2534 62.852 80.0445 62.7438 79.851 62.6053C79.6576 62.4668 79.4973 62.285 79.3691 62.0599C79.2409 61.8349 79.1768 61.5363 79.1768 61.1655C79.1768 60.8077 79.2362 60.4946 79.3525 60.2248C79.4666 59.9598 79.627 59.7284 79.8225 59.5468C80.0184 59.365 80.2439 59.2279 80.4991 59.1371C80.7555 59.0462 81.019 59 81.2908 59C81.6041 59 81.9068 59.0534 82.1988 59.1601C82.4908 59.2669 82.7555 59.4458 82.9905 59.6968L82.1537 60.7947Z" fill="#212121"/>
        <path d="M42 13V25H38V13H42Z" fill="#212121"/>
        <path d="M50 7V25H46V7H50Z" fill="#212121"/>
        <path d="M59 0V24H55V0H59Z" fill="#212121"/>
    </symbol>
    <symbol viewBox="0 0 15 13" id="comment__next">
        <path fill-rule="evenodd" clip-rule="evenodd" d="M0 6.5C0 6.25377 0.0987612 6.01763 0.274557 5.84352C0.450353 5.66941 0.688783 5.5716 0.937395 5.5716H11.7981L7.77288 1.58689C7.59686 1.41256 7.49798 1.17612 7.49798 0.929577C7.49798 0.683038 7.59686 0.446596 7.77288 0.272267C7.9489 0.0979375 8.18763 0 8.43656 0C8.68548 0 8.92422 0.0979375 9.10023 0.272267L14.7246 5.84269C14.8119 5.92893 14.8812 6.03138 14.9284 6.14417C14.9757 6.25697 15 6.37788 15 6.5C15 6.62212 14.9757 6.74303 14.9284 6.85583C14.8812 6.96862 14.8119 7.07107 14.7246 7.15731L9.10023 12.7277C8.92422 12.9021 8.68548 13 8.43656 13C8.18763 13 7.9489 12.9021 7.77288 12.7277C7.59686 12.5534 7.49798 12.317 7.49798 12.0704C7.49798 11.8239 7.59686 11.5874 7.77288 11.4131L11.7981 7.4284H0.937395C0.688783 7.4284 0.450353 7.33059 0.274557 7.15648C0.0987612 6.98237 0 6.74623 0 6.5Z" fill="currentColor"/>
    </symbol>
    <symbol viewBox="0 0 15 13" id="comment__prev">
        <path fill-rule="evenodd" clip-rule="evenodd" d="M15 6.5C15 6.74623 14.9012 6.98237 14.7254 7.15648C14.5496 7.33059 14.3112 7.4284 14.0626 7.4284H3.20194L7.22712 11.4131C7.31427 11.4994 7.38341 11.6019 7.43058 11.7147C7.47775 11.8275 7.50202 11.9484 7.50202 12.0704C7.50202 12.1925 7.47775 12.3134 7.43058 12.4262C7.38341 12.5389 7.31427 12.6414 7.22712 12.7277C7.13996 12.8141 7.0365 12.8825 6.92262 12.9292C6.80875 12.976 6.6867 13 6.56344 13C6.44019 13 6.31814 12.976 6.20426 12.9292C6.09039 12.8825 5.98692 12.8141 5.89977 12.7277L0.275395 7.15731C0.188099 7.07107 0.118838 6.96862 0.0715815 6.85583C0.0243247 6.74303 0 6.62212 0 6.5C0 6.37788 0.0243247 6.25697 0.0715815 6.14417C0.118838 6.03138 0.188099 5.92893 0.275395 5.84269L5.89977 0.272267C6.07578 0.0979375 6.31452 0 6.56344 0C6.81237 0 7.0511 0.0979375 7.22712 0.272267C7.40314 0.446596 7.50202 0.683038 7.50202 0.929577C7.50202 1.17612 7.40314 1.41256 7.22712 1.58689L3.20194 5.5716H14.0626C14.3112 5.5716 14.5496 5.66941 14.7254 5.84352C14.9012 6.01763 15 6.25377 15 6.5Z" fill="currentColor"/>
    </symbol>
    <symbol viewBox="0 0 10 20" id="facebook">
        <path d="M2.55277 20V10.6154H0V7.23652H2.55277V4.3505C2.55277 2.08264 4.0607 0 7.53529 0C8.9421 0 9.98237 0.1311 9.98237 0.1311L9.9004 3.28642C9.9004 3.28642 8.83949 3.27638 7.68178 3.27638C6.42879 3.27638 6.22804 3.83768 6.22804 4.7693V7.23652H10L9.83588 10.6154H6.22804V20H2.55277Z" fill="white"/>
    </symbol>
    <symbol viewBox="0 0 21 20" id="linkedin">
        <path d="M21 12.262V20H16.4989V12.78C16.4989 10.9658 15.8476 9.7284 14.2188 9.7284C12.9752 9.7284 12.2345 10.5631 11.9094 11.3695C11.7905 11.6579 11.76 12.0596 11.76 12.4633V20H7.25673C7.25673 20 7.31775 7.77265 7.25673 6.50482H11.76V8.41758L11.7305 8.46162H11.76V8.41758C12.3576 7.5 13.4255 6.18813 15.8171 6.18813C18.7789 6.18813 21 8.11766 21 12.262ZM2.54727 0C1.00797 0 0 1.00671 0 2.33117C0 3.62626 0.978506 4.66338 2.48835 4.66338H2.51781C4.08868 4.66338 5.06403 3.62626 5.06403 2.33117C5.03668 1.00671 4.08973 0 2.54832 0H2.54727ZM0.267248 20H4.76838V6.50482H0.267248V20Z" fill="white"/>
    </symbol>
    <symbol viewBox="0 0 20 17" id="twitter">
        <path d="M20 2.01939C19.2645 2.35134 18.4641 2.59025 17.6397 2.68329C18.4956 2.15125 19.1366 1.31072 19.4424 0.319389C18.6392 0.819302 17.7593 1.16985 16.8417 1.35548C16.4582 0.926526 15.9944 0.5848 15.4792 0.351597C14.9639 0.118394 14.4083 -0.00128703 13.8469 1.04374e-05C11.5755 1.04374e-05 9.74883 1.92634 9.74883 4.29024C9.74883 4.6222 9.78729 4.95415 9.84978 5.27353C6.44874 5.08743 3.41546 3.38743 1.39887 0.784625C1.03143 1.44128 0.838874 2.18895 0.841245 2.94986C0.841245 4.43862 1.56472 5.75134 2.66795 6.52338C2.0178 6.49659 1.38287 6.30962 0.814806 5.97767V6.03048C0.814806 8.11524 2.22329 9.8429 4.10047 10.2402C3.74801 10.336 3.38543 10.385 3.02127 10.3861C2.75448 10.3861 2.5021 10.3584 2.24733 10.3207C2.76649 12.0207 4.27833 13.2555 6.0786 13.2957C4.67011 14.45 2.9059 15.129 0.990266 15.129C0.646557 15.129 0.329287 15.1164 0 15.0762C1.81709 16.2959 3.97308 17 6.29492 17C13.8325 17 17.957 10.4666 17.957 4.79572C17.957 4.60962 17.957 4.42353 17.945 4.23743C18.7429 3.62634 19.4424 2.86939 20 2.01939Z" fill="white"/>
    </symbol>
    <symbol viewBox="0 0 8 6" id="architecture__arrow">
        <path d="M8 0L3.97 6L0 0H8Z" fill="#212121"/>
    </symbol>
</svg>